<svg viewBox="0 0 152 40" fill="none" xmlns="http://www.w3.org/2000/svg">
  <path fill-rule="evenodd" clip-rule="evenodd" d="M22.063 6.855 23.092.238A20.188 20.188 0 0 0 20 0h-.016v13.5H20c.57 0 1.132.074 1.674.217L23.42 7.14c-.447-.119-.9-.212-1.357-.284Zm-5.319 7.518-3.36-5.789c-.396.23-.782.48-1.152.75l-4.012-5.5a20.062 20.062 0 0 1 2.67-1.645l3.054 5.96c.62-.316 1.264-.584 1.924-.8L13.791.983c.992-.323 2.02-.57 3.052-.735l1.069 6.723c-.452.071-.902.17-1.344.288l1.738 6.463a6.452 6.452 0 0 0-1.562.65Zm-8.512-.347-6.065-3.088a20.08 20.08 0 0 0-1.2 2.904l6.477 2.095c.211-.655.477-1.297.789-1.91v-.001Zm42.28-.335h5.303l5.574 12.618H58.4l-4.367-9.884h-.786v9.884h-2.734V13.69ZM61.39 26.31l5.575-12.618h5.301V26.31h-2.734v-9.884h-.786l-4.367 9.884H61.39Zm44.881 0h-2.734V13.69h2.734v12.62Zm-2.734 0h-2.989l-4.367-9.884h-1.798v9.884h-2.734V13.69h6.314l5.574 12.618ZM79.491 13.69h5.002l5.574 12.618h-2.989l-1.816-4.111h-6.54l-1.817 4.11h-2.989l5.575-12.617Zm1.78 2.734-1.341 3.038h4.124l-1.343-3.038h-1.44Zm26.518 0V13.69h15.494v2.734h-6.38v9.884h-2.734v-9.884h-6.38Zm19.747-2.734h-2.734v12.62h11.899v-2.734h-9.165V13.69Zm23.595 0v2.734h-10.177v2.026h8.823v2.734h-8.823v2.39h10.177v2.734H138.22V13.69h12.911Zm-119.719-.31-5.786 3.362c.285.49.504 1.016.651 1.561l6.463-1.741c.119.442.217.891.289 1.343l6.721-1.07a19.982 19.982 0 0 0-.737-3.054l-6.366 2.082a13.278 13.278 0 0 0-.801-1.924l5.958-3.058a20.088 20.088 0 0 0-1.646-2.669l-5.496 4.015c.27.37.52.756.75 1.152Zm-2.36-11.217Zm0 0A20.011 20.011 0 0 0 26.148.964l-2.09 6.477c.653.211 1.296.476 1.91.788l3.084-6.067Zm-2.416 6.303-3.398 5.897c.492.284.946.63 1.35 1.033l9.53-9.563A20.172 20.172 0 0 0 31.73 3.8L27.8 9.219a13.41 13.41 0 0 0-1.163-.755h-.001ZM14.365 16.76l-5.896-3.402c.231-.4.484-.788.756-1.163L3.806 8.261a20.16 20.16 0 0 1 2.035-2.386l9.558 9.534c-.402.404-.75.858-1.034 1.35Zm-7.225-.186 6.578 1.75A6.526 6.526 0 0 0 13.502 20H0c0-1.038.08-2.082.24-3.102l6.616 1.031c.071-.457.165-.91.284-1.356Zm24.628 9.401 6.065 3.088c.474-.932.878-1.91 1.2-2.905l-6.477-2.094a13.097 13.097 0 0 1-.789 1.91v.001Zm-8.512-.347 3.36 5.789c.395-.23.782-.48 1.151-.75l4.013 5.498a20.051 20.051 0 0 1-2.671 1.645l-3.054-5.96c-.62.317-1.263.584-1.924.8l2.078 6.367c-.993.324-2.02.571-3.053.735l-1.068-6.722c.452-.071.901-.17 1.344-.288l-1.738-6.463a6.452 6.452 0 0 0 1.562-.65Zm-14.668.994 5.787-3.362a6.456 6.456 0 0 1-.652-1.561L7.261 23.44a13.131 13.131 0 0 1-.29-1.343L.25 23.166a19.97 19.97 0 0 0 .737 3.054l6.366-2.082c.216.661.484 1.304.801 1.924l-5.958 3.057c.476.928 1.03 1.826 1.646 2.67l5.496-4.015c-.27-.37-.52-.756-.75-1.152Zm2.36 11.217Zm0 0c.933.474 1.91.877 2.904 1.198l2.09-6.477a13.162 13.162 0 0 1-1.91-.788l-3.085 6.067Zm2.416-6.303 3.398-5.897a6.537 6.537 0 0 1-1.35-1.033l-9.53 9.563c.74.736 1.543 1.42 2.387 2.033l3.931-5.42c.375.27.763.523 1.164.755Zm12.271-8.294 5.896 3.401v.001c-.232.401-.485.789-.756 1.163l5.418 3.933a20.159 20.159 0 0 1-2.034 2.386l-9.558-9.534c.402-.404.75-.858 1.034-1.35Zm-7.309 3.041-1.746 6.58c.447.118.9.211 1.357.283l-1.028 6.617C17.925 39.92 18.965 40 20 40h.016V26.5h-.015a6.51 6.51 0 0 1-1.674-.218Zm7.956-4.605A6.525 6.525 0 0 0 26.498 20H40c0 1.039-.08 2.083-.24 3.103l-6.616-1.032c-.072.457-.166.91-.285 1.356l-6.578-1.75Z" fill="#000"/>
</svg>
